<?xml version="1.0" standalone="no"?>
<!DOCTYPE svg PUBLIC "-//W3C//DTD SVG 20010904//EN"
 "http://www.w3.org/TR/2001/REC-SVG-20010904/DTD/svg10.dtd">
<svg version="1.0" xmlns="http://www.w3.org/2000/svg"
 width="512.000000pt" height="512.000000pt" viewBox="0 0 512.000000 512.000000"
 preserveAspectRatio="xMidYMid meet">
<metadata>
Created by potrace 1.11, written by Peter Selinger 2001-2013
</metadata>
<g transform="translate(0.000000,512.000000) scale(0.100000,-0.100000)"
fill="#000000" stroke="none">
<path d="M1513 4964 c7 -178 10 -206 38 -318 38 -151 103 -295 192 -426 55
-82 73 -103 162 -194 194 -199 477 -343 745 -382 19 -3 41 -7 48 -9 9 -3 12
-165 12 -765 l0 -760 -450 0 -450 0 0 225 0 225 94 0 c51 0 118 5 147 10 159
30 302 166 344 325 12 46 15 117 15 313 l0 253 -277 -3 c-306 -4 -312 -6 -419
-75 -28 -18 -54 -33 -57 -33 -3 0 -28 16 -57 35 -97 65 -145 74 -434 75 l-257
1 2 -257 c1 -274 7 -318 58 -413 29 -56 112 -139 171 -172 78 -43 145 -57 278
-58 l92 -1 0 -225 0 -225 -300 0 -300 0 0 -450 0 -450 165 0 164 0 9 -32 c5
-18 73 -291 152 -605 l143 -573 718 0 c396 0 719 1 719 3 0 1 65 263 145 582
80 319 147 590 150 603 5 22 7 22 170 22 l165 0 0 450 0 450 -300 0 -300 0 0
760 c0 600 3 761 13 764 6 2 53 11 102 21 513 94 943 515 1054 1030 24 113 28
149 30 290 l2 148 -173 -6 c-102 -3 -204 -13 -248 -22 -373 -82 -691 -312
-885 -636 l-48 -82 -15 29 c-27 54 -76 129 -126 194 -183 237 -455 413 -740
480 -126 30 -131 30 -305 37 l-164 6 6 -159z"/>
</g>
</svg>
